<mxfile host="app.diagrams.net" modified="2021-11-16T09:31:15.207Z" agent="5.0 (Windows NT 10.0; Win64; x64) AppleWebKit/537.36 (KHTML, like Gecko) Chrome/95.0.4638.69 Safari/537.36" etag="iQ7hF2s5TKyKHzKrYidC" version="15.7.4" type="github">
  <diagram id="5klQ_HS7iwxAjNnWGPMY" name="第 1 页">
    <mxGraphModel dx="1038" dy="1716" grid="1" gridSize="10" guides="1" tooltips="1" connect="1" arrows="1" fold="1" page="1" pageScale="1" pageWidth="827" pageHeight="1169" math="0" shadow="0">
      <root>
        <mxCell id="0" />
        <mxCell id="1" parent="0" />
        <mxCell id="oNuvwosNk_jDJrgdY47s-1" value="Mysql" style="rounded=0;whiteSpace=wrap;html=1;verticalAlign=top;" vertex="1" parent="1">
          <mxGeometry x="580" y="-5" width="180" height="210" as="geometry" />
        </mxCell>
        <mxCell id="GXtNzpOaLaesd9fxHf-L-15" value="hive" style="rounded=0;whiteSpace=wrap;html=1;verticalAlign=top;" parent="1" vertex="1">
          <mxGeometry x="350" y="-5" width="180" height="210" as="geometry" />
        </mxCell>
        <mxCell id="GXtNzpOaLaesd9fxHf-L-14" value="hive" style="rounded=0;whiteSpace=wrap;html=1;verticalAlign=top;" parent="1" vertex="1">
          <mxGeometry x="57.5" y="-90" width="180" height="380" as="geometry" />
        </mxCell>
        <mxCell id="GXtNzpOaLaesd9fxHf-L-21" style="rounded=0;orthogonalLoop=1;jettySize=auto;html=1;entryX=0;entryY=0.5;entryDx=0;entryDy=0;exitX=1;exitY=0.5;exitDx=0;exitDy=0;" parent="1" source="GXtNzpOaLaesd9fxHf-L-7" target="GXtNzpOaLaesd9fxHf-L-19" edge="1">
          <mxGeometry relative="1" as="geometry" />
        </mxCell>
        <mxCell id="GXtNzpOaLaesd9fxHf-L-7" value="&lt;span&gt;ods_imcrm_s_src_payment&lt;/span&gt;" style="rounded=1;whiteSpace=wrap;html=1;verticalAlign=middle;" parent="1" vertex="1">
          <mxGeometry x="65" y="-60" width="165" height="60" as="geometry" />
        </mxCell>
        <mxCell id="GXtNzpOaLaesd9fxHf-L-22" style="rounded=0;orthogonalLoop=1;jettySize=auto;html=1;entryX=0;entryY=0.5;entryDx=0;entryDy=0;" parent="1" source="GXtNzpOaLaesd9fxHf-L-8" target="GXtNzpOaLaesd9fxHf-L-19" edge="1">
          <mxGeometry relative="1" as="geometry" />
        </mxCell>
        <mxCell id="GXtNzpOaLaesd9fxHf-L-8" value="ods_imcrm_s_order_x" style="rounded=1;whiteSpace=wrap;html=1;verticalAlign=middle;" parent="1" vertex="1">
          <mxGeometry x="65" y="10" width="165" height="60" as="geometry" />
        </mxCell>
        <mxCell id="GXtNzpOaLaesd9fxHf-L-23" style="rounded=0;orthogonalLoop=1;jettySize=auto;html=1;entryX=0;entryY=0.5;entryDx=0;entryDy=0;exitX=1;exitY=0.5;exitDx=0;exitDy=0;" parent="1" source="GXtNzpOaLaesd9fxHf-L-9" target="GXtNzpOaLaesd9fxHf-L-19" edge="1">
          <mxGeometry relative="1" as="geometry" />
        </mxCell>
        <mxCell id="GXtNzpOaLaesd9fxHf-L-27" style="rounded=0;orthogonalLoop=1;jettySize=auto;html=1;entryX=0;entryY=0.5;entryDx=0;entryDy=0;exitX=1;exitY=0.5;exitDx=0;exitDy=0;" parent="1" source="GXtNzpOaLaesd9fxHf-L-9" target="GXtNzpOaLaesd9fxHf-L-17" edge="1">
          <mxGeometry relative="1" as="geometry" />
        </mxCell>
        <mxCell id="GXtNzpOaLaesd9fxHf-L-9" value="dwd_sales_leads_full" style="rounded=1;whiteSpace=wrap;html=1;verticalAlign=middle;" parent="1" vertex="1">
          <mxGeometry x="65" y="80" width="165" height="60" as="geometry" />
        </mxCell>
        <mxCell id="GXtNzpOaLaesd9fxHf-L-24" style="rounded=0;orthogonalLoop=1;jettySize=auto;html=1;entryX=0;entryY=0.5;entryDx=0;entryDy=0;exitX=1;exitY=0.5;exitDx=0;exitDy=0;" parent="1" source="GXtNzpOaLaesd9fxHf-L-10" target="GXtNzpOaLaesd9fxHf-L-19" edge="1">
          <mxGeometry relative="1" as="geometry" />
        </mxCell>
        <mxCell id="GXtNzpOaLaesd9fxHf-L-26" style="rounded=0;orthogonalLoop=1;jettySize=auto;html=1;entryX=0;entryY=0.5;entryDx=0;entryDy=0;exitX=1;exitY=0.5;exitDx=0;exitDy=0;" parent="1" source="GXtNzpOaLaesd9fxHf-L-10" target="GXtNzpOaLaesd9fxHf-L-17" edge="1">
          <mxGeometry relative="1" as="geometry" />
        </mxCell>
        <mxCell id="GXtNzpOaLaesd9fxHf-L-10" value="dim_bos_prod_info" style="rounded=1;whiteSpace=wrap;html=1;verticalAlign=middle;" parent="1" vertex="1">
          <mxGeometry x="65" y="150" width="165" height="60" as="geometry" />
        </mxCell>
        <mxCell id="GXtNzpOaLaesd9fxHf-L-25" style="rounded=0;orthogonalLoop=1;jettySize=auto;html=1;entryX=0;entryY=0.5;entryDx=0;entryDy=0;exitX=1;exitY=0.5;exitDx=0;exitDy=0;" parent="1" source="GXtNzpOaLaesd9fxHf-L-11" target="GXtNzpOaLaesd9fxHf-L-17" edge="1">
          <mxGeometry relative="1" as="geometry" />
        </mxCell>
        <mxCell id="Zn-C6RKnfdsi4MFiFVke-2" style="rounded=0;orthogonalLoop=1;jettySize=auto;html=1;entryX=0;entryY=0.5;entryDx=0;entryDy=0;exitX=1;exitY=0.5;exitDx=0;exitDy=0;" parent="1" source="GXtNzpOaLaesd9fxHf-L-11" target="GXtNzpOaLaesd9fxHf-L-19" edge="1">
          <mxGeometry relative="1" as="geometry" />
        </mxCell>
        <mxCell id="GXtNzpOaLaesd9fxHf-L-11" value="dwd_bos_order_item_df" style="rounded=1;whiteSpace=wrap;html=1;verticalAlign=middle;" parent="1" vertex="1">
          <mxGeometry x="65" y="220" width="165" height="60" as="geometry" />
        </mxCell>
        <mxCell id="oNuvwosNk_jDJrgdY47s-5" style="edgeStyle=orthogonalEdgeStyle;rounded=0;orthogonalLoop=1;jettySize=auto;html=1;entryX=0;entryY=0.5;entryDx=0;entryDy=0;" edge="1" parent="1" source="GXtNzpOaLaesd9fxHf-L-17" target="oNuvwosNk_jDJrgdY47s-3">
          <mxGeometry relative="1" as="geometry" />
        </mxCell>
        <mxCell id="GXtNzpOaLaesd9fxHf-L-17" value="ads_bos_sales_leads_mm" style="rounded=1;whiteSpace=wrap;html=1;verticalAlign=middle;" parent="1" vertex="1">
          <mxGeometry x="357.5" y="130" width="165" height="60" as="geometry" />
        </mxCell>
        <mxCell id="oNuvwosNk_jDJrgdY47s-4" style="edgeStyle=orthogonalEdgeStyle;rounded=0;orthogonalLoop=1;jettySize=auto;html=1;entryX=0;entryY=0.5;entryDx=0;entryDy=0;" edge="1" parent="1" source="GXtNzpOaLaesd9fxHf-L-19" target="oNuvwosNk_jDJrgdY47s-2">
          <mxGeometry relative="1" as="geometry" />
        </mxCell>
        <mxCell id="GXtNzpOaLaesd9fxHf-L-19" value="ads_order_analysis_dd" style="rounded=1;whiteSpace=wrap;html=1;verticalAlign=middle;" parent="1" vertex="1">
          <mxGeometry x="357.5" y="20" width="165" height="60" as="geometry" />
        </mxCell>
        <mxCell id="oNuvwosNk_jDJrgdY47s-2" value="imout_order_analysis" style="rounded=1;whiteSpace=wrap;html=1;verticalAlign=middle;" vertex="1" parent="1">
          <mxGeometry x="587.5" y="20" width="165" height="60" as="geometry" />
        </mxCell>
        <mxCell id="oNuvwosNk_jDJrgdY47s-3" value="imout_sales_leads_full" style="rounded=1;whiteSpace=wrap;html=1;verticalAlign=middle;" vertex="1" parent="1">
          <mxGeometry x="587.5" y="130" width="165" height="60" as="geometry" />
        </mxCell>
      </root>
    </mxGraphModel>
  </diagram>
</mxfile>
